<svg width="16" height="22" viewBox="0 0 16 22" fill="none" xmlns="http://www.w3.org/2000/svg">
<path fill-rule="evenodd" clip-rule="evenodd" d="M1 2.87502L1 19.125C1 20.1589 1.78501 21 2.74997 21H5.66664C5.98908 21 6.24998 20.7205 6.24998 20.375C6.24998 19.3411 7.03498 18.5 7.99998 18.5C8.96498 18.5 9.74999 19.3411 9.74999 20.375C9.74999 20.7205 10.0109 21 10.3333 21H13.25C14.215 21 15 20.1589 15 19.125L15 2.87502C15 1.84108 14.215 1 13.25 1L10.3333 1C10.0109 1 9.74999 1.27953 9.75002 1.625C9.75002 2.65894 8.96502 3.50002 8.00002 3.50002C7.03502 3.50002 6.25001 2.65894 6.25001 1.625C6.25001 1.27953 5.98912 1 5.66668 1H2.75C1.78501 1 1 1.84108 1 2.87502ZM2.84546 2.25H5.19399C5.46021 3.67455 6.61681 4.75002 7.99999 4.75002C9.38317 4.75002 10.5398 3.67455 10.806 2.25H13.1546C13.4705 2.25 13.7273 2.53017 13.7273 2.875L13.7273 19.125C13.7273 19.4698 13.4705 19.75 13.1546 19.75H10.8061C10.5398 18.3254 9.38321 17.25 8.00003 17.25C6.61685 17.25 5.46021 18.3255 5.19399 19.75H2.84546C2.52947 19.75 2.27273 19.4698 2.27273 19.125L2.27273 2.875C2.27273 2.53017 2.52947 2.25 2.84546 2.25Z" fill="black"/>
<path d="M2.74997 21L2.74995 21.308H2.74997V21ZM9.75002 1.625H10.058V1.62497L9.75002 1.625ZM5.19399 2.25L5.49675 2.19342L5.44976 1.942H5.19399V2.25ZM10.806 2.25V1.942H10.5503L10.5033 2.19342L10.806 2.25ZM10.8061 19.75L10.5033 19.8066L10.5503 20.058H10.8061V19.75ZM5.19399 19.75V20.058H5.44976L5.49675 19.8066L5.19399 19.75ZM1.308 19.125L1.308 2.87502H0.692L0.692 19.125H1.308ZM2.74998 20.692C1.97478 20.692 1.308 20.0092 1.308 19.125H0.692C0.692 20.3087 1.59523 21.3079 2.74995 21.308L2.74998 20.692ZM5.66664 20.692H2.74997V21.308H5.66664V20.692ZM5.94198 20.375C5.94198 20.5707 5.79931 20.692 5.66664 20.692V21.308C6.17885 21.308 6.55797 20.8702 6.55797 20.375H5.94198ZM7.99998 18.192C6.84521 18.192 5.94198 19.1913 5.94198 20.375H6.55797C6.55797 19.4908 7.22476 18.808 7.99998 18.808V18.192ZM10.058 20.375C10.058 19.1913 9.15475 18.192 7.99998 18.192V18.808C8.7752 18.808 9.44199 19.4908 9.44199 20.375H10.058ZM10.3333 20.692C10.2007 20.692 10.058 20.5707 10.058 20.375H9.44199C9.44199 20.8702 9.82111 21.308 10.3333 21.308V20.692ZM13.25 20.692H10.3333V21.308H13.25V20.692ZM14.692 19.125C14.692 20.0092 14.0252 20.692 13.25 20.692V21.308C14.4048 21.308 15.308 20.3087 15.308 19.125H14.692ZM14.692 2.87502L14.692 19.125H15.308L15.308 2.87502H14.692ZM13.25 1.308C14.0252 1.308 14.692 1.99082 14.692 2.87502H15.308C15.308 1.69134 14.4048 0.692 13.25 0.692V1.308ZM10.3333 1.308L13.25 1.308V0.692L10.3333 0.692V1.308ZM10.058 1.62497C10.058 1.42927 10.2006 1.308 10.3333 1.308V0.692C9.82111 0.692 9.44197 1.12978 9.44202 1.62503L10.058 1.62497ZM8.00002 3.80802C9.15479 3.80802 10.058 2.80868 10.058 1.625H9.44202C9.44202 2.50919 8.77524 3.19202 8.00002 3.19202V3.80802ZM5.94201 1.625C5.94201 2.80868 6.84525 3.80802 8.00002 3.80802V3.19202C7.2248 3.19202 6.55801 2.50919 6.55801 1.625H5.94201ZM5.66668 1.308C5.79935 1.308 5.94201 1.42927 5.94201 1.625H6.55801C6.55801 1.12978 6.17889 0.692 5.66668 0.692V1.308ZM2.75 1.308L5.66668 1.308V0.692L2.75 0.692V1.308ZM1.308 2.87502C1.308 1.99082 1.97478 1.308 2.75 1.308V0.692C1.59523 0.692 0.692 1.69134 0.692 2.87502H1.308ZM5.19399 1.942L2.84546 1.942V2.558H5.19399V1.942ZM7.99999 4.44202C6.78646 4.44202 5.73985 3.49428 5.49675 2.19342L4.89123 2.30658C5.18056 3.85481 6.44715 5.05802 7.99999 5.05802V4.44202ZM10.5033 2.19342C10.2602 3.49427 9.21352 4.44202 7.99999 4.44202V5.05802C9.55282 5.05802 10.8195 3.85482 11.1088 2.30658L10.5033 2.19342ZM13.1546 1.942L10.806 1.942V2.558H13.1546V1.942ZM14.0353 2.875C14.0353 2.38594 13.6654 1.942 13.1546 1.942V2.558C13.2757 2.558 13.4193 2.67439 13.4193 2.875H14.0353ZM14.0353 19.125L14.0353 2.875H13.4193L13.4193 19.125H14.0353ZM13.1546 20.058C13.6654 20.058 14.0353 19.6141 14.0353 19.125H13.4193C13.4193 19.3256 13.2757 19.442 13.1546 19.442V20.058ZM10.8061 20.058H13.1546V19.442H10.8061V20.058ZM8.00003 17.558C9.21355 17.558 10.2602 18.5057 10.5033 19.8066L11.1088 19.6934C10.8194 18.1451 9.55286 16.942 8.00003 16.942V17.558ZM5.49675 19.8066C5.73985 18.5057 6.7865 17.558 8.00003 17.558V16.942C6.4472 16.942 5.18056 18.1452 4.89123 19.6934L5.49675 19.8066ZM2.84546 20.058H5.19399V19.442H2.84546V20.058ZM1.96474 19.125C1.96474 19.6141 2.33459 20.058 2.84546 20.058V19.442C2.72434 19.442 2.58073 19.3256 2.58073 19.125H1.96474ZM1.96474 2.875L1.96474 19.125H2.58073L2.58073 2.875H1.96474ZM2.84546 1.942C2.33459 1.942 1.96474 2.38594 1.96474 2.875H2.58073C2.58073 2.67439 2.72434 2.558 2.84546 2.558V1.942Z" fill="black"/>
</svg>