<svg width="14" height="16" viewBox="0 0 14 16" fill="none" xmlns="http://www.w3.org/2000/svg">
<path fill-rule="evenodd" clip-rule="evenodd" d="M13.2127 0.0952657C13.4531 0.186901 13.6446 0.331356 13.7869 0.528887C13.9289 0.726308 14 0.944767 14 1.18452V14.8156C14 15.0554 13.929 15.2738 13.7868 15.4712C13.6446 15.6688 13.4531 15.8134 13.2126 15.9049C13.0741 15.9613 12.9136 15.9893 12.7313 15.9893C12.3814 15.9893 12.0788 15.8765 11.8235 15.6513L7.00004 11.1671L2.17653 15.6512C1.91396 15.8836 1.61151 16 1.26868 16C1.101 16 0.940528 15.9683 0.787521 15.905C0.54694 15.8134 0.355471 15.6688 0.213305 15.4714C0.0711784 15.2738 0 15.0555 0 14.8156V1.18438C0 0.944619 0.0711784 0.72616 0.213305 0.528739C0.355471 0.331319 0.54694 0.186679 0.787521 0.0951175C0.940681 0.0317429 1.101 0 1.26868 0H12.7313V0.000148158C12.8991 0.000148158 13.0595 0.031891 13.2127 0.0952657ZM7.97354 10.1942L12.6001 14.4876V1.35377H1.40015V14.4876L6.02667 10.1942L7.00006 9.29545L7.97354 10.1942Z" fill="black"/>
</svg>